<mxfile host="app.diagrams.net" modified="2022-11-13T16:24:24.348Z" agent="5.0 (Windows NT 10.0; Win64; x64) AppleWebKit/537.36 (KHTML, like Gecko) Chrome/105.0.0.0 Safari/537.36 OPR/91.0.4516.106" etag="wU9lXZsEuLVwKn4sgcTs" version="20.5.3" type="github">
  <diagram id="Vkol3Xqrpf9xBEXjYmv2" name="Page-1">
    <mxGraphModel dx="997" dy="548" grid="1" gridSize="10" guides="1" tooltips="1" connect="1" arrows="1" fold="1" page="1" pageScale="1" pageWidth="827" pageHeight="1169" math="0" shadow="0">
      <root>
        <mxCell id="0" />
        <mxCell id="1" parent="0" />
        <mxCell id="rtgqJ3zLbVFpwjIn28qb-1" value="" style="shape=umlLifeline;participant=umlActor;perimeter=lifelinePerimeter;whiteSpace=wrap;html=1;container=1;collapsible=0;recursiveResize=0;verticalAlign=top;spacingTop=36;outlineConnect=0;" parent="1" vertex="1">
          <mxGeometry x="190" y="40" width="20" height="300" as="geometry" />
        </mxCell>
        <mxCell id="rtgqJ3zLbVFpwjIn28qb-4" value="Admin" style="text;html=1;align=center;verticalAlign=middle;resizable=0;points=[];autosize=1;strokeColor=none;fillColor=none;" parent="1" vertex="1">
          <mxGeometry x="170" y="10" width="60" height="30" as="geometry" />
        </mxCell>
        <mxCell id="rtgqJ3zLbVFpwjIn28qb-7" value="" style="endArrow=classic;html=1;rounded=0;" parent="1" source="rtgqJ3zLbVFpwjIn28qb-1" target="cpfkslM7Rsk8DenqXvCb-1" edge="1">
          <mxGeometry width="50" height="50" relative="1" as="geometry">
            <mxPoint x="360" y="190" as="sourcePoint" />
            <mxPoint x="399.5" y="100" as="targetPoint" />
            <Array as="points">
              <mxPoint x="300" y="100" />
            </Array>
          </mxGeometry>
        </mxCell>
        <mxCell id="rtgqJ3zLbVFpwjIn28qb-8" value="Installation application" style="edgeLabel;html=1;align=center;verticalAlign=middle;resizable=0;points=[];" parent="rtgqJ3zLbVFpwjIn28qb-7" connectable="0" vertex="1">
          <mxGeometry x="-0.147" y="1" relative="1" as="geometry">
            <mxPoint x="15" as="offset" />
          </mxGeometry>
        </mxCell>
        <mxCell id="rtgqJ3zLbVFpwjIn28qb-9" value="" style="endArrow=classic;html=1;rounded=0;" parent="1" source="cpfkslM7Rsk8DenqXvCb-1" target="cpfkslM7Rsk8DenqXvCb-2" edge="1">
          <mxGeometry width="50" height="50" relative="1" as="geometry">
            <mxPoint x="399.5" y="120" as="sourcePoint" />
            <mxPoint x="599.5" y="120" as="targetPoint" />
            <Array as="points">
              <mxPoint x="500" y="120" />
            </Array>
          </mxGeometry>
        </mxCell>
        <mxCell id="rtgqJ3zLbVFpwjIn28qb-10" value="Allocation de ressources&amp;nbsp;&lt;br&gt;mémoire" style="edgeLabel;html=1;align=center;verticalAlign=middle;resizable=0;points=[];" parent="rtgqJ3zLbVFpwjIn28qb-9" connectable="0" vertex="1">
          <mxGeometry x="-0.3539" y="-1" relative="1" as="geometry">
            <mxPoint x="36" as="offset" />
          </mxGeometry>
        </mxCell>
        <mxCell id="rtgqJ3zLbVFpwjIn28qb-11" value="" style="endArrow=classic;html=1;rounded=0;" parent="1" source="cpfkslM7Rsk8DenqXvCb-1" target="rtgqJ3zLbVFpwjIn28qb-1" edge="1">
          <mxGeometry width="50" height="50" relative="1" as="geometry">
            <mxPoint x="399.5" y="150" as="sourcePoint" />
            <mxPoint x="200" y="150" as="targetPoint" />
            <Array as="points">
              <mxPoint x="310" y="150" />
            </Array>
          </mxGeometry>
        </mxCell>
        <mxCell id="rtgqJ3zLbVFpwjIn28qb-12" value="Installation réussie" style="edgeLabel;html=1;align=center;verticalAlign=middle;resizable=0;points=[];" parent="rtgqJ3zLbVFpwjIn28qb-11" connectable="0" vertex="1">
          <mxGeometry x="-0.159" y="-1" relative="1" as="geometry">
            <mxPoint x="-32" y="1" as="offset" />
          </mxGeometry>
        </mxCell>
        <mxCell id="rtgqJ3zLbVFpwjIn28qb-13" value="" style="endArrow=classic;html=1;rounded=0;" parent="1" source="rtgqJ3zLbVFpwjIn28qb-1" target="cpfkslM7Rsk8DenqXvCb-2" edge="1">
          <mxGeometry width="50" height="50" relative="1" as="geometry">
            <mxPoint x="360" y="190" as="sourcePoint" />
            <mxPoint x="599.5" y="190" as="targetPoint" />
          </mxGeometry>
        </mxCell>
        <mxCell id="rtgqJ3zLbVFpwjIn28qb-14" value="Configuration" style="edgeLabel;html=1;align=center;verticalAlign=middle;resizable=0;points=[];" parent="rtgqJ3zLbVFpwjIn28qb-13" connectable="0" vertex="1">
          <mxGeometry x="-0.3737" y="-1" relative="1" as="geometry">
            <mxPoint x="75" y="-1" as="offset" />
          </mxGeometry>
        </mxCell>
        <mxCell id="rtgqJ3zLbVFpwjIn28qb-15" value="" style="endArrow=classic;html=1;rounded=0;" parent="1" source="rtgqJ3zLbVFpwjIn28qb-1" target="cpfkslM7Rsk8DenqXvCb-1" edge="1">
          <mxGeometry width="50" height="50" relative="1" as="geometry">
            <mxPoint x="360" y="190" as="sourcePoint" />
            <mxPoint x="399.5" y="240" as="targetPoint" />
            <Array as="points">
              <mxPoint x="300" y="240" />
            </Array>
          </mxGeometry>
        </mxCell>
        <mxCell id="rtgqJ3zLbVFpwjIn28qb-16" value="Désinstallation application" style="edgeLabel;html=1;align=center;verticalAlign=middle;resizable=0;points=[];" parent="rtgqJ3zLbVFpwjIn28qb-15" connectable="0" vertex="1">
          <mxGeometry x="-0.1018" relative="1" as="geometry">
            <mxPoint as="offset" />
          </mxGeometry>
        </mxCell>
        <mxCell id="rtgqJ3zLbVFpwjIn28qb-17" value="" style="endArrow=classic;html=1;rounded=0;" parent="1" source="cpfkslM7Rsk8DenqXvCb-1" target="cpfkslM7Rsk8DenqXvCb-2" edge="1">
          <mxGeometry width="50" height="50" relative="1" as="geometry">
            <mxPoint x="399.5" y="260" as="sourcePoint" />
            <mxPoint x="599.5" y="260" as="targetPoint" />
            <Array as="points">
              <mxPoint x="500" y="260" />
            </Array>
          </mxGeometry>
        </mxCell>
        <mxCell id="rtgqJ3zLbVFpwjIn28qb-18" value="Suppression des ressources&lt;br&gt;mémoire" style="edgeLabel;html=1;align=center;verticalAlign=middle;resizable=0;points=[];" parent="rtgqJ3zLbVFpwjIn28qb-17" connectable="0" vertex="1">
          <mxGeometry x="-0.2763" y="1" relative="1" as="geometry">
            <mxPoint x="18" as="offset" />
          </mxGeometry>
        </mxCell>
        <mxCell id="rtgqJ3zLbVFpwjIn28qb-19" value="" style="endArrow=classic;html=1;rounded=0;" parent="1" source="cpfkslM7Rsk8DenqXvCb-1" target="rtgqJ3zLbVFpwjIn28qb-1" edge="1">
          <mxGeometry width="50" height="50" relative="1" as="geometry">
            <mxPoint x="399.5" y="290" as="sourcePoint" />
            <mxPoint x="410" y="250" as="targetPoint" />
            <Array as="points">
              <mxPoint x="300" y="290" />
            </Array>
          </mxGeometry>
        </mxCell>
        <mxCell id="rtgqJ3zLbVFpwjIn28qb-20" value="Désinstallation réussie" style="edgeLabel;html=1;align=center;verticalAlign=middle;resizable=0;points=[];" parent="rtgqJ3zLbVFpwjIn28qb-19" connectable="0" vertex="1">
          <mxGeometry x="0.1406" relative="1" as="geometry">
            <mxPoint x="24" as="offset" />
          </mxGeometry>
        </mxCell>
        <mxCell id="cpfkslM7Rsk8DenqXvCb-1" value="Machine Local" style="shape=umlLifeline;perimeter=lifelinePerimeter;whiteSpace=wrap;html=1;container=1;collapsible=0;recursiveResize=0;outlineConnect=0;fillColor=#dae8fc;strokeColor=#6c8ebf;" parent="1" vertex="1">
          <mxGeometry x="350" y="40" width="100" height="300" as="geometry" />
        </mxCell>
        <mxCell id="cpfkslM7Rsk8DenqXvCb-2" value="Application" style="shape=umlLifeline;perimeter=lifelinePerimeter;whiteSpace=wrap;html=1;container=1;collapsible=0;recursiveResize=0;outlineConnect=0;fillColor=#dae8fc;strokeColor=#6c8ebf;" parent="1" vertex="1">
          <mxGeometry x="550" y="40" width="100" height="300" as="geometry" />
        </mxCell>
      </root>
    </mxGraphModel>
  </diagram>
</mxfile>
